{"accessors" : [{"bufferView" : 0, "byteOffset" : 0, "componentType" : 5123, "count" : 11376, "type" : "SCALAR", "max" : [9268], "min" : [0]}, {"bufferView" : 1, "byteOffset" : 0, "componentType" : 5126, "count" : 9269, "type" : "VEC3", "max" : [63.671939849853516, 46.57154846191406, -26.451387405395508], "min" : [42.798065185546875, 31.037778854370117, -84.67391204833984], "name" : "POSITION"}, {"bufferView" : 1, "byteOffset" : 12, "componentType" : 5126, "count" : 9269, "type" : "VEC3", "max" : [1.0000044107437134, 1.0000044107437134, 1.0000044107437134], "min" : [-1.0000044107437134, -1.0000044107437134, -1.0000044107437134], "name" : "NORMAL"}, {"bufferView" : 1, "byteOffset" : 24, "componentType" : 5126, "count" : 9269, "type" : "VEC2", "max" : [1.987794041633606, 1.1659940481185913], "min" : [-0.07466299831867218, 0], "name" : "TEXCOORD_0"}, {"bufferView" : 0, "byteOffset" : 22752, "componentType" : 5123, "count" : 2880, "type" : "SCALAR", "max" : [2430], "min" : [0]}, {"bufferView" : 2, "byteOffset" : 0, "componentType" : 5126, "count" : 2431, "type" : "VEC3", "max" : [54.854347229003906, 45.21176528930664, -70.57926177978516], "min" : [42.74700927734375, 32.4762077331543, -83.31481170654297], "name" : "POSITION"}, {"bufferView" : 2, "byteOffset" : 12, "componentType" : 5126, "count" : 2431, "type" : "VEC3", "max" : [1.0000044107437134, 1.0000042915344238, 1.0000044107437134], "min" : [-1.0000042915344238, -1.0000044107437134, -1.0000044107437134], "name" : "NORMAL"}, {"bufferView" : 2, "byteOffset" : 24, "componentType" : 5126, "count" : 2431, "type" : "VEC2", "max" : [1, 1], "min" : [0, 0], "name" : "TEXCOORD_0"}, {"bufferView" : 0, "byteOffset" : 28512, "componentType" : 5123, "count" : 2880, "type" : "SCALAR", "max" : [2430], "min" : [0]}, {"bufferView" : 3, "byteOffset" : 0, "componentType" : 5126, "count" : 2431, "type" : "VEC3", "max" : [54.745330810546875, 45.21176528930664, -28.441356658935547], "min" : [42.63799285888672, 32.4762077331543, -41.17691421508789], "name" : "POSITION"}, {"bufferView" : 3, "byteOffset" : 12, "componentType" : 5126, "count" : 2431, "type" : "VEC3", "max" : [1.0000044107437134, 1.0000044107437134, 1.0000044107437134], "min" : [-1.0000044107437134, -1.0000044107437134, -1.0000044107437134], "name" : "NORMAL"}, {"bufferView" : 3, "byteOffset" : 24, "componentType" : 5126, "count" : 2431, "type" : "VEC2", "max" : [1, 1], "min" : [0, 0], "name" : "TEXCOORD_0"}, {"bufferView" : 0, "byteOffset" : 34272, "componentType" : 5123, "count" : 11520, "type" : "SCALAR", "max" : [9187], "min" : [0]}, {"bufferView" : 4, "byteOffset" : 0, "componentType" : 5126, "count" : 9188, "type" : "VEC3", "max" : [117.12273406982422, 59.2509765625, 0.42834898829460144], "min" : [42.821319580078125, 18.452392578125, -114.4794921875], "name" : "POSITION"}, {"bufferView" : 4, "byteOffset" : 12, "componentType" : 5126, "count" : 9188, "type" : "VEC3", "max" : [1.0000044107437134, 1.0000044107437134, 1.0000044107437134], "min" : [-1.0000044107437134, -1.0000044107437134, -1.0000044107437134], "name" : "NORMAL"}, {"bufferView" : 4, "byteOffset" : 24, "componentType" : 5126, "count" : 9188, "type" : "VEC2", "max" : [1.2672890424728394, 0.9606680274009705], "min" : [-1.1304049491882324, 0.008740007877349854], "name" : "TEXCOORD_0"}, {"bufferView" : 0, "byteOffset" : 57312, "componentType" : 5123, "count" : 204, "type" : "SCALAR", "max" : [171], "min" : [0]}, {"bufferView" : 5, "byteOffset" : 0, "componentType" : 5126, "count" : 172, "type" : "VEC3", "max" : [95.38005065917969, 39.140380859375, -110.57791900634766], "min" : [88.19270324707031, 38.539154052734375, -114.17897033691406], "name" : "POSITION"}, {"bufferView" : 5, "byteOffset" : 12, "componentType" : 5126, "count" : 172, "type" : "VEC3", "max" : [0.7399131655693054, 0.7205749750137329, 0.6915026307106018], "min" : [-0.7399131655693054, -0.7205749750137329, -0.6915023326873779], "name" : "NORMAL"}, {"bufferView" : 5, "byteOffset" : 24, "componentType" : 5126, "count" : 172, "type" : "VEC2", "max" : [1.308014988899231, 1], "min" : [-3.6821789741516113, -2.9802322387695312E-06], "name" : "TEXCOORD_0"}, {"bufferView" : 0, "byteOffset" : 57720, "componentType" : 5123, "count" : 4224, "type" : "SCALAR", "max" : [3521], "min" : [0]}, {"bufferView" : 6, "byteOffset" : 0, "componentType" : 5126, "count" : 3522, "type" : "VEC3", "max" : [91.64323425292969, 59.55934143066406, -45.35437774658203], "min" : [68.30082702636719, 58.81383514404297, -68.69678497314453], "name" : "POSITION"}, {"bufferView" : 6, "byteOffset" : 12, "componentType" : 5126, "count" : 3522, "type" : "VEC3", "max" : [1.0000044107437134, 1.0000044107437134, 1.0000044107437134], "min" : [-1.0000044107437134, -1.0000044107437134, -1.0000044107437134], "name" : "NORMAL"}, {"bufferView" : 6, "byteOffset" : 24, "componentType" : 5126, "count" : 3522, "type" : "VEC2", "max" : [0.75, 1], "min" : [-0.25, 0], "name" : "TEXCOORD_0"}, {"bufferView" : 0, "byteOffset" : 66168, "componentType" : 5123, "count" : 4224, "type" : "SCALAR", "max" : [3523], "min" : [0]}, {"bufferView" : 7, "byteOffset" : 0, "componentType" : 5126, "count" : 3524, "type" : "VEC3", "max" : [91.64323425292969, 18.89089012145996, -45.35437774658203], "min" : [68.30082702636719, 18.145383834838867, -68.69678497314453], "name" : "POSITION"}, {"bufferView" : 7, "byteOffset" : 12, "componentType" : 5126, "count" : 3524, "type" : "VEC3", "max" : [1.0000044107437134, 1.0000044107437134, 1.0000044107437134], "min" : [-1.0000044107437134, -1.0000044107437134, -1.0000044107437134], "name" : "NORMAL"}, {"bufferView" : 7, "byteOffset" : 24, "componentType" : 5126, "count" : 3524, "type" : "VEC2", "max" : [0.75, 1], "min" : [-0.25, 0], "name" : "TEXCOORD_0"}, {"bufferView" : 0, "byteOffset" : 74616, "componentType" : 5123, "count" : 552, "type" : "SCALAR", "max" : [454], "min" : [0]}, {"bufferView" : 8, "byteOffset" : 0, "componentType" : 5126, "count" : 455, "type" : "VEC3", "max" : [117.12272644042969, 59.2509880065918, 0.42834898829460144], "min" : [42.821319580078125, 57.646263122558594, -114.4794921875], "name" : "POSITION"}, {"bufferView" : 8, "byteOffset" : 12, "componentType" : 5126, "count" : 455, "type" : "VEC3", "max" : [0.8672009110450745, 0.5343229174613953, 0.8453771471977234], "min" : [-0.8672010898590088, 0.497967004776001, -0.8453799486160278], "name" : "NORMAL"}, {"bufferView" : 8, "byteOffset" : 24, "componentType" : 5126, "count" : 455, "type" : "VEC2", "max" : [1.007519006729126, 0.9606680274009705], "min" : [0.21074099838733673, -0.0075190067291259766], "name" : "TEXCOORD_0"}, {"bufferView" : 0, "byteOffset" : 75720, "componentType" : 5123, "count" : 552, "type" : "SCALAR", "max" : [456], "min" : [0]}, {"bufferView" : 9, "byteOffset" : 0, "componentType" : 5126, "count" : 457, "type" : "VEC3", "max" : [117.12273406982422, 20.057113647460938, 0.42835599184036255], "min" : [42.821319580078125, 18.452388763427734, -114.4794921875], "name" : "POSITION"}, {"bufferView" : 9, "byteOffset" : 12, "componentType" : 5126, "count" : 457, "type" : "VEC3", "max" : [0.8671989440917969, -0.4979703426361084, 0.8453761339187622], "min" : [-0.8671991229057312, -0.5343268513679504, -0.8453783392906189], "name" : "NORMAL"}, {"bufferView" : 9, "byteOffset" : 24, "componentType" : 5126, "count" : 457, "type" : "VEC2", "max" : [0.7892590165138245, 0.2110549807548523], "min" : [-0.007519000209867954, -0.0075190067291259766], "name" : "TEXCOORD_0"}], "asset" : {"generator" : "Aspose.3D 21.12", "version" : "2.0"}, "buffers" : [{"uri" : "data:application/octet-stream;base64,", "byteLength" : 1306048}], "bufferViews" : [{"buffer" : 0, "byteOffset" : 0, "byteLength" : 76824, "target" : 34963}, {"buffer" : 0, "byteOffset" : 76828, "byteLength" : 364032, "byteStride" : 32, "target" : 34962}, {"buffer" : 0, "byteOffset" : 440864, "byteLength" : 92160, "byteStride" : 32, "target" : 34962}, {"buffer" : 0, "byteOffset" : 533028, "byteLength" : 92160, "byteStride" : 32, "target" : 34962}, {"buffer" : 0, "byteOffset" : 625192, "byteLength" : 368640, "byteStride" : 32, "target" : 34962}, {"buffer" : 0, "byteOffset" : 993836, "byteLength" : 6528, "byteStride" : 32, "target" : 34962}, {"buffer" : 0, "byteOffset" : 1000368, "byteLength" : 135168, "byteStride" : 32, "target" : 34962}, {"buffer" : 0, "byteOffset" : 1135540, "byteLength" : 135168, "byteStride" : 32, "target" : 34962}, {"buffer" : 0, "byteOffset" : 1270712, "byteLength" : 17664, "byteStride" : 32, "target" : 34962}, {"buffer" : 0, "byteOffset" : 1288380, "byteLength" : 17664, "byteStride" : 32, "target" : 34962}], "materials" : [{"name" : "wire_006006006", "pbrMetallicRoughness" : {"baseColorFactor" : [0.02352900058031082, 0.02352900058031082, 0.02352900058031082, 1], "metallicFactor" : 0, "roughnessFactor" : 0.8114382028579712}, "emissiveFactor" : [0, 0, 0], "alphaMode" : "OPAQUE", "doubleSided" : true}, {"name" : "wire_008008014", "pbrMetallicRoughness" : {"baseColorFactor" : [0.031373001635074615, 0.031373001635074615, 0.05490199849009514, 1], "metallicFactor" : 0, "roughnessFactor" : 0.8114382028579712}, "emissiveFactor" : [0, 0, 0], "alphaMode" : "OPAQUE", "doubleSided" : true}, {"name" : "wire_008008014", "pbrMetallicRoughness" : {"baseColorFactor" : [0.031373001635074615, 0.031373001635074615, 0.05490199849009514, 1], "metallicFactor" : 0, "roughnessFactor" : 0.8114382028579712}, "emissiveFactor" : [0, 0, 0], "alphaMode" : "OPAQUE", "doubleSided" : true}, {"name" : "wire_000000000", "pbrMetallicRoughness" : {"baseColorFactor" : [0, 0, 0, 1], "metallicFactor" : 0, "roughnessFactor" : 0.8114382028579712}, "emissiveFactor" : [0, 0, 0], "alphaMode" : "OPAQUE", "doubleSided" : true}, {"name" : "wire_255255255", "pbrMetallicRoughness" : {"baseColorFactor" : [1, 1, 1, 1], "metallicFactor" : 0, "roughnessFactor" : 0.8114382028579712}, "emissiveFactor" : [0, 0, 0], "alphaMode" : "OPAQUE", "doubleSided" : true}, {"name" : "wire_255255255", "pbrMetallicRoughness" : {"baseColorFactor" : [1, 1, 1, 1], "metallicFactor" : 0, "roughnessFactor" : 0.8114382028579712}, "emissiveFactor" : [0, 0, 0], "alphaMode" : "OPAQUE", "doubleSided" : true}, {"name" : "wire_255255255", "pbrMetallicRoughness" : {"baseColorFactor" : [1, 1, 1, 1], "metallicFactor" : 0, "roughnessFactor" : 0.8114382028579712}, "emissiveFactor" : [0, 0, 0], "alphaMode" : "OPAQUE", "doubleSided" : true}, {"name" : "wire_255255255", "pbrMetallicRoughness" : {"baseColorFactor" : [1, 1, 1, 1], "metallicFactor" : 0, "roughnessFactor" : 0.8114382028579712}, "emissiveFactor" : [0, 0, 0], "alphaMode" : "OPAQUE", "doubleSided" : true}, {"name" : "wire_255255255", "pbrMetallicRoughness" : {"baseColorFactor" : [1, 1, 1, 1], "metallicFactor" : 0, "roughnessFactor" : 0.8114382028579712}, "emissiveFactor" : [0, 0, 0], "alphaMode" : "OPAQUE", "doubleSided" : true}], "meshes" : [{"primitives" : [{"attributes" : {"POSITION" : 1, "NORMAL" : 2, "TEXCOORD_0" : 3}, "indices" : 0, "material" : 0, "mode" : 4}]}, {"primitives" : [{"attributes" : {"POSITION" : 5, "NORMAL" : 6, "TEXCOORD_0" : 7}, "indices" : 4, "material" : 1, "mode" : 4}]}, {"primitives" : [{"attributes" : {"POSITION" : 9, "NORMAL" : 10, "TEXCOORD_0" : 11}, "indices" : 8, "material" : 2, "mode" : 4}]}, {"primitives" : [{"attributes" : {"POSITION" : 13, "NORMAL" : 14, "TEXCOORD_0" : 15}, "indices" : 12, "material" : 3, "mode" : 4}]}, {"primitives" : [{"attributes" : {"POSITION" : 17, "NORMAL" : 18, "TEXCOORD_0" : 19}, "indices" : 16, "material" : 4, "mode" : 4}]}, {"primitives" : [{"attributes" : {"POSITION" : 21, "NORMAL" : 22, "TEXCOORD_0" : 23}, "indices" : 20, "material" : 5, "mode" : 4}]}, {"primitives" : [{"attributes" : {"POSITION" : 25, "NORMAL" : 26, "TEXCOORD_0" : 27}, "indices" : 24, "material" : 6, "mode" : 4}]}, {"primitives" : [{"attributes" : {"POSITION" : 29, "NORMAL" : 30, "TEXCOORD_0" : 31}, "indices" : 28, "material" : 7, "mode" : 4}]}, {"primitives" : [{"attributes" : {"POSITION" : 33, "NORMAL" : 34, "TEXCOORD_0" : 35}, "indices" : 32, "material" : 8, "mode" : 4}]}], "nodes" : [{"matrix" : [1, 0, 0, 0, 0, -1.3435885648505064E-07, 0.9999999657714511, 0, 0, -0.9999999657714511, -1.3435885648505064E-07, 0, 0, 0, 0, 1], "mesh" : 0, "name" : "Sensor_Component"}, {"matrix" : [1, 0, 0, 0, 0, -1.3435885648505064E-07, 0.9999999657714511, 0, 0, -0.9999999657714511, -1.3435885648505064E-07, 0, 0, 0, 0, 1], "mesh" : 1, "name" : "Sensor1"}, {"matrix" : [1, 0, 0, 0, 0, -1.3435885648505064E-07, 0.9999999657714511, 0, 0, -0.9999999657714511, -1.3435885648505064E-07, 0, 0, 0, 0, 1], "mesh" : 2, "name" : "Sensor2"}, {"matrix" : [1, 0, 0, 0, 0, -1.3435885648505064E-07, 0.9999999657714511, 0, 0, -0.9999999657714511, -1.3435885648505064E-07, 0, 0, 0, 0, 1], "mesh" : 3, "name" : "BeemShield_Casing001"}, {"matrix" : [1, 0, 0, 0, 0, -1.3435885648505064E-07, 0.9999999657714511, 0, 0, -0.9999999657714511, -1.3435885648505064E-07, 0, 0, 0, 0, 1], "mesh" : 4, "name" : "USB_Port"}, {"matrix" : [1, 0, 0, 0, 0, -1.3435885648505064E-07, 0.9999999657714511, 0, 0, -0.9999999657714511, -1.3435885648505064E-07, 0, 0, 0, 0, 1], "mesh" : 5, "name" : "Logo_Side1"}, {"matrix" : [1, 0, 0, 0, 0, -1.3435885648505064E-07, 0.9999999657714511, 0, 0, -0.9999999657714511, -1.3435885648505064E-07, 0, 0, 0, 0, 1], "mesh" : 6, "name" : "Logo_Side2"}, {"matrix" : [1, 0, 0, 0, 0, -1.3435885648505064E-07, 0.9999999657714511, 0, 0, -0.9999999657714511, -1.3435885648505064E-07, 0, 0, 0, 0, 1], "mesh" : 7, "name" : "Bevel_Side1"}, {"matrix" : [1, 0, 0, 0, 0, -1.3435885648505064E-07, 0.9999999657714511, 0, 0, -0.9999999657714511, -1.3435885648505064E-07, 0, 0, 0, 0, 1], "mesh" : 8, "name" : "Bevel_Side2"}], "scene" : 0, "scenes" : [{"nodes" : [0, 1, 2, 3, 4, 5, 6, 7, 8]}]}